<svg width="168" height="168" viewBox="0 0 168 168" fill="none" xmlns="http://www.w3.org/2000/svg">
<rect x="12.2917" y="11.7925" width="143" height="143" rx="71.5" fill="url(#paint0_linear_34_65)"/>
<path d="M122.203 129.229C110.975 138.693 96.5867 143.601 81.849 142.993C67.1112 142.385 53.0833 136.305 42.5067 125.941C31.93 115.578 25.5647 101.675 24.6546 86.95C23.7446 72.2251 28.3552 57.7362 37.5855 46.3149C46.8157 34.8936 60.0023 27.3606 74.5682 25.1881C89.1341 23.0156 104.033 26.3596 116.352 34.5667C128.672 42.7738 137.527 55.2542 141.187 69.5689C144.848 83.8836 143.05 99.0038 136.146 111.975L119.075 102.785C123.728 94.0438 124.939 83.8538 122.472 74.2068C120.005 64.5597 114.038 56.1488 105.735 50.6178C97.4327 45.0868 87.3922 42.8332 77.5758 44.2973C67.7594 45.7614 58.8726 50.8381 52.6521 58.5353C46.4315 66.2324 43.3243 75.9968 43.9376 85.9204C44.5509 95.8439 48.8407 105.213 55.9686 112.198C63.0965 119.182 72.5503 123.28 82.4825 123.689C92.4147 124.099 102.111 120.791 109.678 114.413L122.203 129.229Z" fill="white"/>
<path d="M90.5 75.375C89.406 75.375 88.3568 75.8096 87.5832 76.5832C86.8096 77.3568 86.375 78.406 86.375 79.5C86.375 80.594 86.8096 81.6432 87.5832 82.4168C88.3568 83.1904 89.406 83.625 90.5 83.625C91.594 83.625 92.6432 83.1904 93.4168 82.4168C94.1904 81.6432 94.625 80.594 94.625 79.5C94.625 78.406 94.1904 77.3568 93.4168 76.5832C92.6432 75.8096 91.594 75.375 90.5 75.375ZM90.5 86.375C89.406 86.375 88.3568 86.8096 87.5832 87.5832C86.8096 88.3568 86.375 89.406 86.375 90.5C86.375 91.594 86.8096 92.6432 87.5832 93.4168C88.3568 94.1904 89.406 94.625 90.5 94.625C91.594 94.625 92.6432 94.1904 93.4168 93.4168C94.1904 92.6432 94.625 91.594 94.625 90.5C94.625 89.406 94.1904 88.3568 93.4168 87.5832C92.6432 86.8096 91.594 86.375 90.5 86.375ZM79.5 98.75C78.7707 98.75 78.0712 99.0397 77.5555 99.5555C77.0397 100.071 76.75 100.771 76.75 101.5C76.75 102.229 77.0397 102.929 77.5555 103.445C78.0712 103.96 78.7707 104.25 79.5 104.25C80.2293 104.25 80.9288 103.96 81.4445 103.445C81.9603 102.929 82.25 102.229 82.25 101.5C82.25 100.771 81.9603 100.071 81.4445 99.5555C80.9288 99.0397 80.2293 98.75 79.5 98.75ZM79.5 75.375C78.406 75.375 77.3568 75.8096 76.5832 76.5832C75.8096 77.3568 75.375 78.406 75.375 79.5C75.375 80.594 75.8096 81.6432 76.5832 82.4168C77.3568 83.1904 78.406 83.625 79.5 83.625C80.594 83.625 81.6432 83.1904 82.4168 82.4168C83.1904 81.6432 83.625 80.594 83.625 79.5C83.625 78.406 83.1904 77.3568 82.4168 76.5832C81.6432 75.8096 80.594 75.375 79.5 75.375ZM90.5 108.375C90.1353 108.375 89.7856 108.52 89.5277 108.778C89.2699 109.036 89.125 109.385 89.125 109.75C89.125 110.115 89.2699 110.464 89.5277 110.722C89.7856 110.98 90.1353 111.125 90.5 111.125C90.8647 111.125 91.2144 110.98 91.4723 110.722C91.7301 110.464 91.875 110.115 91.875 109.75C91.875 109.385 91.7301 109.036 91.4723 108.778C91.2144 108.52 90.8647 108.375 90.5 108.375ZM90.5 98.75C89.7707 98.75 89.0712 99.0397 88.5555 99.5555C88.0397 100.071 87.75 100.771 87.75 101.5C87.75 102.229 88.0397 102.929 88.5555 103.445C89.0712 103.96 89.7707 104.25 90.5 104.25C91.2293 104.25 91.9288 103.96 92.4445 103.445C92.9603 102.929 93.25 102.229 93.25 101.5C93.25 100.771 92.9603 100.071 92.4445 99.5555C91.9288 99.0397 91.2293 98.75 90.5 98.75ZM109.75 89.125C109.385 89.125 109.036 89.2699 108.778 89.5277C108.52 89.7856 108.375 90.1353 108.375 90.5C108.375 90.8647 108.52 91.2144 108.778 91.4723C109.036 91.7301 109.385 91.875 109.75 91.875C110.115 91.875 110.464 91.7301 110.722 91.4723C110.98 91.2144 111.125 90.8647 111.125 90.5C111.125 90.1353 110.98 89.7856 110.722 89.5277C110.464 89.2699 110.115 89.125 109.75 89.125ZM101.5 65.75C100.771 65.75 100.071 66.0397 99.5555 66.5555C99.0397 67.0712 98.75 67.7707 98.75 68.5C98.75 69.2293 99.0397 69.9288 99.5555 70.4445C100.071 70.9603 100.771 71.25 101.5 71.25C102.229 71.25 102.929 70.9603 103.445 70.4445C103.96 69.9288 104.25 69.2293 104.25 68.5C104.25 67.7707 103.96 67.0712 103.445 66.5555C102.929 66.0397 102.229 65.75 101.5 65.75ZM101.5 76.75C100.771 76.75 100.071 77.0397 99.5555 77.5555C99.0397 78.0712 98.75 78.7707 98.75 79.5C98.75 80.2293 99.0397 80.9288 99.5555 81.4445C100.071 81.9603 100.771 82.25 101.5 82.25C102.229 82.25 102.929 81.9603 103.445 81.4445C103.96 80.9288 104.25 80.2293 104.25 79.5C104.25 78.7707 103.96 78.0712 103.445 77.5555C102.929 77.0397 102.229 76.75 101.5 76.75ZM101.5 98.75C100.771 98.75 100.071 99.0397 99.5555 99.5555C99.0397 100.071 98.75 100.771 98.75 101.5C98.75 102.229 99.0397 102.929 99.5555 103.445C100.071 103.96 100.771 104.25 101.5 104.25C102.229 104.25 102.929 103.96 103.445 103.445C103.96 102.929 104.25 102.229 104.25 101.5C104.25 100.771 103.96 100.071 103.445 99.5555C102.929 99.0397 102.229 98.75 101.5 98.75ZM101.5 87.75C100.771 87.75 100.071 88.0397 99.5555 88.5555C99.0397 89.0712 98.75 89.7707 98.75 90.5C98.75 91.2293 99.0397 91.9288 99.5555 92.4445C100.071 92.9603 100.771 93.25 101.5 93.25C102.229 93.25 102.929 92.9603 103.445 92.4445C103.96 91.9288 104.25 91.2293 104.25 90.5C104.25 89.7707 103.96 89.0712 103.445 88.5555C102.929 88.0397 102.229 87.75 101.5 87.75ZM79.5 86.375C78.406 86.375 77.3568 86.8096 76.5832 87.5832C75.8096 88.3568 75.375 89.406 75.375 90.5C75.375 91.594 75.8096 92.6432 76.5832 93.4168C77.3568 94.1904 78.406 94.625 79.5 94.625C80.594 94.625 81.6432 94.1904 82.4168 93.4168C83.1904 92.6432 83.625 91.594 83.625 90.5C83.625 89.406 83.1904 88.3568 82.4168 87.5832C81.6432 86.8096 80.594 86.375 79.5 86.375ZM79.5 71.25C80.2293 71.25 80.9288 70.9603 81.4445 70.4445C81.9603 69.9288 82.25 69.2293 82.25 68.5C82.25 67.7707 81.9603 67.0712 81.4445 66.5555C80.9288 66.0397 80.2293 65.75 79.5 65.75C78.7707 65.75 78.0712 66.0397 77.5555 66.5555C77.0397 67.0712 76.75 67.7707 76.75 68.5C76.75 69.2293 77.0397 69.9288 77.5555 70.4445C78.0712 70.9603 78.7707 71.25 79.5 71.25ZM79.5 61.625C79.8647 61.625 80.2144 61.4801 80.4723 61.2223C80.7301 60.9644 80.875 60.6147 80.875 60.25C80.875 59.8853 80.7301 59.5356 80.4723 59.2777C80.2144 59.0199 79.8647 58.875 79.5 58.875C79.1353 58.875 78.7856 59.0199 78.5277 59.2777C78.2699 59.5356 78.125 59.8853 78.125 60.25C78.125 60.6147 78.2699 60.9644 78.5277 61.2223C78.7856 61.4801 79.1353 61.625 79.5 61.625ZM79.5 108.375C79.1353 108.375 78.7856 108.52 78.5277 108.778C78.2699 109.036 78.125 109.385 78.125 109.75C78.125 110.115 78.2699 110.464 78.5277 110.722C78.7856 110.98 79.1353 111.125 79.5 111.125C79.8647 111.125 80.2144 110.98 80.4723 110.722C80.7301 110.464 80.875 110.115 80.875 109.75C80.875 109.385 80.7301 109.036 80.4723 108.778C80.2144 108.52 79.8647 108.375 79.5 108.375ZM60.25 89.125C59.8853 89.125 59.5356 89.2699 59.2777 89.5277C59.0199 89.7856 58.875 90.1353 58.875 90.5C58.875 90.8647 59.0199 91.2144 59.2777 91.4723C59.5356 91.7301 59.8853 91.875 60.25 91.875C60.6147 91.875 60.9644 91.7301 61.2223 91.4723C61.4801 91.2144 61.625 90.8647 61.625 90.5C61.625 90.1353 61.4801 89.7856 61.2223 89.5277C60.9644 89.2699 60.6147 89.125 60.25 89.125ZM90.5 61.625C90.8647 61.625 91.2144 61.4801 91.4723 61.2223C91.7301 60.9644 91.875 60.6147 91.875 60.25C91.875 59.8853 91.7301 59.5356 91.4723 59.2777C91.2144 59.0199 90.8647 58.875 90.5 58.875C90.1353 58.875 89.7856 59.0199 89.5277 59.2777C89.2699 59.5356 89.125 59.8853 89.125 60.25C89.125 60.6147 89.2699 60.9644 89.5277 61.2223C89.7856 61.4801 90.1353 61.625 90.5 61.625ZM90.5 71.25C91.2293 71.25 91.9288 70.9603 92.4445 70.4445C92.9603 69.9288 93.25 69.2293 93.25 68.5C93.25 67.7707 92.9603 67.0712 92.4445 66.5555C91.9288 66.0397 91.2293 65.75 90.5 65.75C89.7707 65.75 89.0712 66.0397 88.5555 66.5555C88.0397 67.0712 87.75 67.7707 87.75 68.5C87.75 69.2293 88.0397 69.9288 88.5555 70.4445C89.0712 70.9603 89.7707 71.25 90.5 71.25ZM109.75 80.875C110.115 80.875 110.464 80.7301 110.722 80.4723C110.98 80.2144 111.125 79.8647 111.125 79.5C111.125 79.1353 110.98 78.7856 110.722 78.5277C110.464 78.2699 110.115 78.125 109.75 78.125C109.385 78.125 109.036 78.2699 108.778 78.5277C108.52 78.7856 108.375 79.1353 108.375 79.5C108.375 79.8647 108.52 80.2144 108.778 80.4723C109.036 80.7301 109.385 80.875 109.75 80.875ZM68.5 65.75C67.7707 65.75 67.0712 66.0397 66.5555 66.5555C66.0397 67.0712 65.75 67.7707 65.75 68.5C65.75 69.2293 66.0397 69.9288 66.5555 70.4445C67.0712 70.9603 67.7707 71.25 68.5 71.25C69.2293 71.25 69.9288 70.9603 70.4445 70.4445C70.9603 69.9288 71.25 69.2293 71.25 68.5C71.25 67.7707 70.9603 67.0712 70.4445 66.5555C69.9288 66.0397 69.2293 65.75 68.5 65.75ZM60.25 78.125C59.8853 78.125 59.5356 78.2699 59.2777 78.5277C59.0199 78.7856 58.875 79.1353 58.875 79.5C58.875 79.8647 59.0199 80.2144 59.2777 80.4723C59.5356 80.7301 59.8853 80.875 60.25 80.875C60.6147 80.875 60.9644 80.7301 61.2223 80.4723C61.4801 80.2144 61.625 79.8647 61.625 79.5C61.625 79.1353 61.4801 78.7856 61.2223 78.5277C60.9644 78.2699 60.6147 78.125 60.25 78.125ZM68.5 76.75C67.7707 76.75 67.0712 77.0397 66.5555 77.5555C66.0397 78.0712 65.75 78.7707 65.75 79.5C65.75 80.2293 66.0397 80.9288 66.5555 81.4445C67.0712 81.9603 67.7707 82.25 68.5 82.25C69.2293 82.25 69.9288 81.9603 70.4445 81.4445C70.9603 80.9288 71.25 80.2293 71.25 79.5C71.25 78.7707 70.9603 78.0712 70.4445 77.5555C69.9288 77.0397 69.2293 76.75 68.5 76.75ZM68.5 98.75C67.7707 98.75 67.0712 99.0397 66.5555 99.5555C66.0397 100.071 65.75 100.771 65.75 101.5C65.75 102.229 66.0397 102.929 66.5555 103.445C67.0712 103.96 67.7707 104.25 68.5 104.25C69.2293 104.25 69.9288 103.96 70.4445 103.445C70.9603 102.929 71.25 102.229 71.25 101.5C71.25 100.771 70.9603 100.071 70.4445 99.5555C69.9288 99.0397 69.2293 98.75 68.5 98.75ZM68.5 87.75C67.7707 87.75 67.0712 88.0397 66.5555 88.5555C66.0397 89.0712 65.75 89.7707 65.75 90.5C65.75 91.2293 66.0397 91.9288 66.5555 92.4445C67.0712 92.9603 67.7707 93.25 68.5 93.25C69.2293 93.25 69.9288 92.9603 70.4445 92.4445C70.9603 91.9288 71.25 91.2293 71.25 90.5C71.25 89.7707 70.9603 89.0712 70.4445 88.5555C69.9288 88.0397 69.2293 87.75 68.5 87.75Z" fill="white"/>
<defs>
<linearGradient id="paint0_linear_34_65" x1="81.9584" y1="11.7925" x2="83.7917" y2="154.792" gradientUnits="userSpaceOnUse">
<stop stop-color="#3182CE"/>
<stop offset="1" stop-color="#954AF6"/>
</linearGradient>
</defs>
</svg>
